<svg width="1400" height="900" viewBox="0 0 1400 900" fill="none" xmlns="http://www.w3.org/2000/svg" role="img" aria-label="SaaS Landing Page">
  <rect width="1400" height="900" rx="42" fill="#0D1220"/>
  <circle cx="210" cy="162" r="238" fill="#22d3ee" opacity="0.18"/>
  <circle cx="1190" cy="108" r="252" fill="#8b5cf6" opacity="0.14"/>
  <circle cx="1190" cy="738" r="280" fill="#8B5CF6" opacity="0.15"/>
  <rect x="64" y="64" width="1272" height="772" rx="34" fill="white" opacity="0.055" stroke="white" stroke-opacity="0.16"/>
  <rect x="104" y="110" width="1192" height="64" rx="22" fill="white" opacity="0.08"/>
  <circle cx="140" cy="142" r="10" fill="white" opacity="0.24"/>
  <circle cx="170" cy="142" r="10" fill="white" opacity="0.18"/>
  <circle cx="200" cy="142" r="10" fill="white" opacity="0.14"/>
  <rect x="104" y="218" width="655" height="36" rx="18" fill="#22d3ee" opacity="0.75"/>
  <rect x="104" y="278" width="858" height="24" rx="12" fill="white" opacity="0.18"/>
  <rect x="104" y="322" width="691" height="24" rx="12" fill="white" opacity="0.12"/>
  <rect x="104" y="386" width="384" height="230" rx="28" fill="white" opacity="0.08" stroke="white" stroke-opacity="0.13"/>
  <rect x="508" y="386" width="384" height="230" rx="28" fill="white" opacity="0.08" stroke="white" stroke-opacity="0.13"/>
  <rect x="912" y="386" width="384" height="230" rx="28" fill="white" opacity="0.08" stroke="white" stroke-opacity="0.13"/>
  <rect x="104" y="664" width="1192" height="96" rx="28" fill="white" opacity="0.075" stroke="white" stroke-opacity="0.13"/>
  <text x="104" y="812" fill="white" font-family="Arial, Helvetica, sans-serif" font-size="58" font-weight="800" letter-spacing="-2">SaaS Landing Page</text>
  <text x="104" y="858" fill="#AAB2C5" font-family="Arial, Helvetica, sans-serif" font-size="26" font-weight="600">Message clarity and signup flow</text>
</svg>